<svg width="262" height="63" viewBox="0 0 262 63" fill="none" xmlns="http://www.w3.org/2000/svg">
<g clip-path="url(#clip0_5_43)">
<mask id="mask0_5_43" style="mask-type:luminance" maskUnits="userSpaceOnUse" x="0" y="0" width="67" height="43">
<path d="M0 0H66.25V42.8548H0V0Z" fill="white"/>
</mask>
<g mask="url(#mask0_5_43)">
<path d="M22.179 37.0128L26.9072 18.7046C27.1566 17.7309 28.0654 16.9588 29.0595 17.0955C30.0674 17.133 30.9146 17.8676 31.0957 18.8583L35.4516 42.807L37.8703 38.1676C38.2393 37.4535 38.9772 37.0094 39.7767 37.0094H56.9712L61.4842 32.0079C61.6379 31.8302 61.7643 31.6321 61.8566 31.4237C64.2685 27.3172 66.1031 23.7574 66.1031 19.0496C66.1031 8.90304 57.716 0.3314 47.788 0.3314C41.8231 0.3314 36.473 3.02007 33.0943 7.53992C29.6711 2.88684 24.2254 0.0273438 18.3868 0.0273438C8.4623 0.0273438 0.0751343 8.75955 0.0751343 19.1009C0.0751343 23.7676 1.82089 27.1703 4.30458 31.3963C4.39682 31.6184 4.52665 31.8234 4.69064 32.0079L9.21047 37.0094L22.179 37.0128Z" fill="#FF3131"/>
</g>
<mask id="mask1_5_43" style="mask-type:luminance" maskUnits="userSpaceOnUse" x="12" y="28" width="42" height="35">
<path d="M12.6815 28.8614H53.7871V62.2119H12.6815V28.8614Z" fill="white"/>
</mask>
<g mask="url(#mask1_5_43)">
<path d="M41.0817 41.3072L36.374 50.3469C35.9982 51.0643 35.2602 51.505 34.4676 51.505C34.3583 51.505 34.249 51.4914 34.1465 51.4743C33.2377 51.3376 32.5169 50.6373 32.3563 49.7354L28.6257 29.2338L25.9233 39.6879C25.6808 40.6342 24.8232 41.297 23.8462 41.297H13.0915L31.5296 61.696C31.9395 62.1436 32.5169 62.3998 33.125 62.3998C33.7331 62.3998 34.3173 62.1436 34.7204 61.6926L53.1073 41.297L41.0817 41.3072Z" fill="#FF3131"/>
</g>
<path d="M87.1731 34.3243L90.3571 12.5962H94.2108L90.0975 39.2302H83.8524L79.7527 12.5962H83.9754L87.1731 34.3243Z" fill="#003366"/>
<path d="M99.9912 33.108C99.9912 34.0748 100.186 34.7547 100.579 35.1442C100.968 35.5371 101.494 35.7318 102.15 35.7318C102.813 35.7318 103.343 35.5371 103.736 35.1442C104.125 34.7547 104.323 34.0748 104.323 33.108V18.7183C104.323 17.7617 104.125 17.0887 103.736 16.6958C103.343 16.2961 102.813 16.0946 102.15 16.0946C101.494 16.0946 100.968 16.2961 100.579 16.6958C100.186 17.0887 99.9912 17.7617 99.9912 18.7183V33.108ZM95.796 18.9916C95.796 16.8325 96.3426 15.179 97.4358 14.0311C98.529 12.8763 100.101 12.2956 102.15 12.2956C104.207 12.2956 105.779 12.8763 106.865 14.0311C107.958 15.179 108.505 16.8325 108.505 18.9916V32.8347C108.505 34.9938 107.958 36.6542 106.865 37.8089C105.779 38.9568 104.207 39.5308 102.15 39.5308C100.101 39.5308 98.529 38.9568 97.4358 37.8089C96.3426 36.6542 95.796 34.9938 95.796 32.8347V18.9916Z" fill="#003366"/>
<path d="M123.336 29.2954V32.8347C123.336 34.9938 122.806 36.6542 121.751 37.8089C120.702 38.9568 119.154 39.5308 117.104 39.5308C115.044 39.5308 113.486 38.9568 112.431 37.8089C111.382 36.6542 110.859 34.9938 110.859 32.8347V18.9916C110.859 16.8325 111.382 15.179 112.431 14.0311C113.486 12.8763 115.044 12.2956 117.104 12.2956C119.154 12.2956 120.702 12.8763 121.751 14.0311C122.806 15.179 123.336 16.8325 123.336 18.9916V21.5744H119.386V18.7183C119.386 17.7617 119.188 17.0887 118.799 16.6958C118.406 16.2961 117.876 16.0946 117.214 16.0946C116.558 16.0946 116.032 16.2961 115.642 16.6958C115.249 17.0887 115.055 17.7617 115.055 18.7183V33.108C115.055 34.0748 115.249 34.7479 115.642 35.1305C116.032 35.5063 116.558 35.6908 117.214 35.6908C117.876 35.6908 118.406 35.5063 118.799 35.1305C119.188 34.7479 119.386 34.0748 119.386 33.108V29.2954H123.336Z" fill="#003366"/>
<path d="M130.079 23.8155H135.819V27.6282H130.079V35.4311H137.308V39.2301H125.884V12.5962H137.308V16.4089H130.079V23.8155ZM126.007 11.3117L129.546 6.85672H133.537L137.076 11.3117H133.304L131.514 9.09785L129.765 11.3117H126.007Z" fill="#003366"/>
<path d="M145.245 18.9916C145.245 16.8325 145.758 15.179 146.789 14.0311C147.818 12.8763 149.358 12.2956 151.408 12.2956C153.465 12.2956 155.006 12.8763 156.027 14.0311C157.056 15.179 157.571 16.8325 157.571 18.9916V20.0165H153.622V18.7183C153.622 17.7617 153.434 17.0887 153.062 16.6958C152.696 16.2961 152.187 16.0946 151.531 16.0946C150.865 16.0946 150.349 16.2961 149.987 16.6958C149.622 17.0887 149.44 17.7617 149.44 18.7183C149.44 19.6407 149.639 20.4504 150.042 21.1508C150.452 21.8443 150.957 22.5002 151.559 23.1186C152.167 23.7404 152.819 24.3621 153.513 24.9908C154.213 25.6125 154.869 26.289 155.481 27.0269C156.089 27.758 156.594 28.5916 156.997 29.5277C157.407 30.4672 157.612 31.5707 157.612 32.8347C157.612 34.9938 157.083 36.6542 156.027 37.8089C154.978 38.9568 153.431 39.5308 151.381 39.5308C149.321 39.5308 147.763 38.9568 146.707 37.8089C145.659 36.6542 145.136 34.9938 145.136 32.8347V31.0172H149.099V33.108C149.099 34.0748 149.294 34.7479 149.686 35.1305C150.076 35.5063 150.602 35.6908 151.258 35.6908C151.921 35.6908 152.45 35.5063 152.843 35.1305C153.233 34.7479 153.431 34.0748 153.431 33.108C153.431 32.1993 153.226 31.393 152.816 30.6892C152.413 29.9889 151.907 29.3295 151.299 28.7077C150.687 28.0894 150.032 27.471 149.331 26.8492C148.638 26.2309 147.985 25.551 147.377 24.8131C146.765 24.0752 146.256 23.2382 145.846 22.2987C145.443 21.3626 145.245 20.2591 145.245 18.9916Z" fill="#003366"/>
<path d="M173.547 39.2302H169.324L168.614 34.3926H163.476L162.751 39.2302H158.911L163.161 12.5962H169.297L173.547 39.2302ZM164.009 30.7849H168.04L166.017 17.3108L164.009 30.7849Z" fill="#003366"/>
<path d="M179.49 12.5962V33.149C179.49 34.1056 179.685 34.7752 180.078 35.1579C180.468 35.5405 180.994 35.7318 181.65 35.7318C182.312 35.7318 182.842 35.5405 183.235 35.1579C183.624 34.7752 183.822 34.1056 183.822 33.149V12.5962H187.785V32.8757C187.785 35.0349 187.256 36.6952 186.2 37.8499C185.151 38.9978 183.597 39.5718 181.54 39.5718C179.49 39.5718 177.936 38.9978 176.88 37.8499C175.821 36.6952 175.295 35.0349 175.295 32.8757V12.5962H179.49Z" fill="#003366"/>
<path d="M190.626 12.5962H197.254C199.358 12.5962 200.919 13.1565 201.941 14.2771C202.969 15.3908 203.485 17.0238 203.485 19.183V32.6434C203.485 34.8026 202.969 36.4424 201.941 37.563C200.919 38.6767 199.358 39.2302 197.254 39.2302H190.626V12.5962ZM194.821 16.4089V35.4312H197.172C197.834 35.4312 198.354 35.2398 198.73 34.8572C199.112 34.4746 199.303 33.8016 199.303 32.8347V18.9916C199.303 18.0282 199.112 17.3586 198.73 16.9828C198.354 16.6002 197.834 16.4089 197.172 16.4089H194.821Z" fill="#003366"/>
<path d="M219.688 39.2301H215.466L214.755 34.3926H209.617L208.892 39.2301H205.052L209.302 12.5962H215.438L219.688 39.2301ZM210.15 30.7849H214.181L212.158 17.3108L210.15 30.7849ZM217.406 6.85672L213.306 11.3117H210.341L213.074 6.85672H217.406Z" fill="#003366"/>
<path d="M227.955 34.3243L231.139 12.5962H234.992L230.879 39.2302H224.634L220.534 12.5962H224.757L227.955 34.3243Z" fill="#003366"/>
<path d="M241.114 23.8155H246.854V27.6282H241.114V35.4312H248.343V39.2302H236.919V12.5962H248.343V16.4089H241.114V23.8155Z" fill="#003366"/>
<path d="M250.917 12.5962H255.113V35.4312H262V39.2302H250.917V12.5962Z" fill="#003366"/>
</g>
<defs>
<clipPath id="clip0_5_43">
<rect width="262" height="63" fill="white"/>
</clipPath>
</defs>
</svg>
